<svg xmlns="http://www.w3.org/2000/svg" version="1.1" xmlns:xlink="http://www.w3.org/1999/xlink" xmlns:svgjs="http://svgjs.dev/svgjs" width="100%" height="100%" viewBox="0 0 1000 600"><rect width="1000" height="600" x="0" y="0" fill="#2b3252"/><g><circle r="166.66666666666666" cx="429.8935343424479" cy="452.11576817184925" fill="#fad744" transform="matrix(0.47487546305961237,0,0,0.47487546305961237,0,85.30129311139709)"/><path d="M430.01056499036696 527.1157995878408L430.01056499036696 527.1157995878408Q413.36015600810225 527.1157995878408 399.1385413062031 521.526646484831Q384.91692660430385 515.9667559635125 374.49944752225423 505.7248523716097Q364.05270585851343 495.5122113613981 358.25871468366563 481.93437345670424Q352.4647235088178 468.3272729703192 352.4647235088178 452.1158027134217L352.4647235088178 452.1158027134217Q352.4647235088178 435.9043324565243 358.25871468366563 422.29723197013925Q364.05270585851343 408.71939406544533 374.49944752225423 398.5067530552338Q384.91692660430385 388.264849463331 399.0507535611296 382.7049589420124Q413.1553179362642 377.1158058390027 430.01056499036696 377.1158058390027L430.01056499036696 377.1158058390027Q446.6609739726317 377.1158058390027 460.7655383477663 382.7049589420124Q474.89936530459204 388.264849463331 485.31684438664166 398.38970272846916Q495.73432346869134 408.5145559936073 501.52831464353915 422.2094442250658Q507.32230581838695 435.9043324565243 507.32230581838695 452.1158027134217L507.32230581838695 452.1158027134217Q507.32230581838695 468.3272729703192 501.52831464353915 482.0221612017777Q495.73432346869134 495.7170494332362 485.31684438664166 505.84190269837427Q474.89936530459204 515.9667559635125 460.7655383477663 521.526646484831Q446.6609739726317 527.1157995878408 430.01056499036696 527.1157995878408ZM430.01056499036696 513.2160732845443L430.01056499036696 513.2160732845443Q443.2957770781494 513.2160732845443 454.5618710292424 508.6803731224159Q465.82796498033537 504.14467296028755 474.13853818062216 495.8340997600008Q482.4783739626001 487.523526559714 487.1018618698019 476.4622706804591Q491.7546123586948 465.4010148012041 491.7546123586948 452.1158027134217L491.7546123586948 452.1158027134217Q491.7546123586948 438.83059062563933 487.1018618698019 427.7693347463844Q482.4783739626001 416.7080788671295 474.13853818062216 408.3975056668427Q465.82796498033537 400.0869324665559 454.5618710292424 395.5512323044276Q443.2957770781494 391.0155321422992 430.01056499036696 391.0155321422992L430.01056499036696 391.0155321422992Q416.7253529025846 391.0155321422992 405.37147120641816 395.5512323044276Q393.9883269285606 400.0869324665559 385.64849114658267 408.3975056668427Q377.3379179462958 416.7080788671295 372.5973797123294 427.7693347463844Q367.85684147836304 438.83059062563933 367.85684147836304 452.1158027134217L367.85684147836304 452.1158027134217Q367.85684147836304 465.1669141476749 372.5973797123294 476.34522035369446Q377.3379179462958 487.523526559714 385.64849114658267 495.8340997600008Q393.9883269285606 504.14467296028755 405.37147120641816 508.6803731224159Q416.7253529025846 513.2160732845443 430.01056499036696 513.2160732845443Z " fill="#2b3252" transform="matrix(0.47487546305961237,0,0,0.47487546305961237,0,85.30129311139709)"/><path d="M714.9951581298304 442.9786922999203L690.154677121351 468.13079224578206L689.6649902197502 453.7072871440843L757.6201770646315 383.8378696838542L771.242376327346 383.8378696838542L721.7172237790785 435.7669397490714L714.9951581298304 442.9786922999203ZM691.7572887993175 496.02068714150306L679.8935106832606 496.02068714150306L679.8935106832606 383.8378696838542L691.7572887993175 383.8378696838542L691.7572887993175 496.02068714150306ZM774.6034091519701 496.02068714150306L760.4915229876548 496.02068714150306L712.10155371128 440.240897350061L720.1146121011121 431.60460108546425L774.6034091519701 496.02068714150306ZM852.8197624349419 496.02068714150306L841.9130996265594 496.02068714150306L841.9130996265594 477.43484337619816L841.4234127249587 474.3854294889565L841.4234127249587 443.29031123730266Q841.4234127249587 432.5617163931386 835.4136189325845 426.796766051565Q829.4038251402104 421.00955721446405 817.5623055196809 421.00955721446405L817.5623055196809 421.00955721446405Q809.3711791656303 421.00955721446405 802.0036171460903 423.74735216432333Q794.6360551265502 426.4628886186553 789.5166011552686 430.9591047151722L789.5166011552686 430.9591047151722L784.3748886884598 422.4563594237393Q790.7853354003254 417.003028019548 799.7555090978318 414.0426481144156Q808.7479412908656 411.0822682092832 818.6752302960465 411.0822682092832L818.6752302960465 411.0822682092832Q835.012966013093 411.0822682092832 843.9163642240175 419.18436058122455Q852.8197624349419 427.26419445763855 852.8197624349419 443.7799981389035L852.8197624349419 443.7799981389035L852.8197624349419 496.02068714150306ZM812.9102799544728 496.8219929804863L812.9102799544728 496.8219929804863Q803.4504193553655 496.8219929804863 796.4835102553171 493.7058036066627Q789.5166011552686 490.5673557373118 785.821690897735 485.0472488465386Q782.1267806402013 479.5048834602381 782.1267806402013 472.2931309093893L782.1267806402013 472.2931309093893Q782.1267806402013 465.72687472883246 785.2652285095522 460.36257730675044Q788.3814178833758 454.9982798846684 795.5263949476428 451.70402254662633Q802.6491135163823 448.4320237041116 814.6687011011304 448.4320237041116L814.6687011011304 448.4320237041116L843.671520773217 448.4320237041116L843.671520773217 456.91251050001716L814.9803200385128 456.91251050001716Q802.8049229850735 456.91251050001716 798.0861219332835 461.25291712784286Q793.3450623859662 465.57106526014127 793.3450623859662 471.9815119720069L793.3450623859662 471.9815119720069Q793.3450623859662 479.19326452285577 798.9542032588487 483.5114126551542Q804.5633441317311 487.8518192829799 814.6687011011304 487.8518192829799L814.6687011011304 487.8518192829799Q824.2843711689289 487.8518192829799 831.2512802689773 483.4446371685722Q838.2181893690257 479.0374550541646 841.4234127249587 470.69051923142285L841.4234127249587 470.69051923142285L844.0053982061266 478.5477681525637Q840.8001748501939 486.89470397530545 832.8538919469438 491.85834847789585Q824.9298675392209 496.8219929804863 812.9102799544728 496.8219929804863ZM927.1631374961617 496.8219929804863L927.1631374961617 496.8219929804863Q916.2787331833064 496.8219929804863 907.4643689544912 491.76931449578666Q898.6500047256759 486.71663601108696 893.4415167722851 477.18999992539773Q888.2330288188942 467.6633638397085 888.2330288188942 453.8630966127755L888.2330288188942 453.8630966127755Q888.2330288188942 440.0850878813698 893.3524827901758 430.5584517956806Q898.4941952569847 421.00955721446405 907.3085594858 416.04591271187365Q916.1229237146152 411.0822682092832 927.1631374961617 411.0822682092832L927.1631374961617 411.0822682092832Q939.1827250809098 411.0822682092832 948.7316196621263 416.4465656313652Q958.2582557478155 421.81086305344724 963.7115871520068 431.51556710335495Q969.1649185561981 441.2202711532627 969.1649185561981 453.8630966127755L969.1649185561981 453.8630966127755Q969.1649185561981 466.6839900365068 963.7115871520068 476.2996601043053Q958.2582557478155 485.9153301721038 948.7316196621263 491.368661576295Q939.1827250809098 496.8219929804863 927.1631374961617 496.8219929804863ZM895.1109039368334 527.115805393157L883.7368127223773 527.115805393157L883.7368127223773 411.88357404826644L894.6434755307599 411.88357404826644L894.6434755307599 437.21374195834665L893.5082922588671 454.041164576994L895.1109039368334 471.0243966643325L895.1109039368334 527.115805393157ZM926.3618316571784 486.71663601108696L926.3618316571784 486.71663601108696Q935.3542638502123 486.71663601108696 942.3879484368425 482.643331329589Q949.4438915190002 478.5477681525637 953.6062301826074 471.0911721509145Q957.790827341742 463.65683464479247 957.790827341742 453.8630966127755L957.790827341742 453.8630966127755Q957.790827341742 444.09161707628584 953.6062301826074 436.72405505674584Q949.4438915190002 429.3564930372058 942.3879484368425 425.19415437359856Q935.3542638502123 421.00955721446405 926.3618316571784 421.00955721446405L926.3618316571784 421.00955721446405Q917.391657959672 421.00955721446405 910.2689393909324 425.19415437359856Q903.1239623266655 429.3564930372058 899.0506576451675 436.72405505674584Q894.9550944681422 444.09161707628584 894.9550944681422 453.8630966127755L894.9550944681422 453.8630966127755Q894.9550944681422 463.65683464479247 899.0506576451675 471.0911721509145Q903.1239623266655 478.5477681525637 910.2689393909324 482.643331329589Q917.391657959672 486.71663601108696 926.3618316571784 486.71663601108696ZM1055.5501396976933 496.02068714150306L1044.6434768893105 496.02068714150306L1044.6434768893105 477.43484337619816L1044.1537899877098 474.3854294889565L1044.1537899877098 443.29031123730266Q1044.1537899877098 432.5617163931386 1038.1439961953356 426.796766051565Q1032.1342024029618 421.00955721446405 1020.292682782432 421.00955721446405L1020.292682782432 421.00955721446405Q1012.1015564283815 421.00955721446405 1004.7339944088416 423.74735216432333Q997.3664323893014 426.4628886186553 992.2469784180199 430.9591047151722L992.2469784180199 430.9591047151722L987.105265951211 422.4563594237393Q993.5157126630767 417.003028019548 1002.4858863605831 414.0426481144156Q1011.4783185536168 411.0822682092832 1021.4056075587977 411.0822682092832L1021.4056075587977 411.0822682092832Q1037.743343275844 411.0822682092832 1046.6467414867689 419.18436058122455Q1055.5501396976933 427.26419445763855 1055.5501396976933 443.7799981389035L1055.5501396976933 443.7799981389035L1055.5501396976933 496.02068714150306ZM1015.640657217224 496.8219929804863L1015.640657217224 496.8219929804863Q1006.1807966181167 496.8219929804863 999.2138875180682 493.7058036066627Q992.2469784180199 490.5673557373118 988.5520681604862 485.0472488465386Q984.8571579029525 479.5048834602381 984.8571579029525 472.2931309093893L984.8571579029525 472.2931309093893Q984.8571579029525 465.72687472883246 987.9956057723034 460.36257730675044Q991.1117951461271 454.9982798846684 998.2567722103939 451.70402254662633Q1005.3794907791336 448.4320237041116 1017.3990783638816 448.4320237041116L1017.3990783638816 448.4320237041116L1046.4018980359683 448.4320237041116L1046.4018980359683 456.91251050001716L1017.710697301264 456.91251050001716Q1005.5353002478247 456.91251050001716 1000.8164991960347 461.25291712784286Q996.0754396487174 465.57106526014127 996.0754396487174 471.9815119720069L996.0754396487174 471.9815119720069Q996.0754396487174 479.19326452285577 1001.6845805215997 483.5114126551542Q1007.2937213944823 487.8518192829799 1017.3990783638816 487.8518192829799L1017.3990783638816 487.8518192829799Q1027.01474843168 487.8518192829799 1033.9816575317286 483.4446371685722Q1040.9485666317769 479.0374550541646 1044.1537899877098 470.69051923142285L1044.1537899877098 470.69051923142285L1046.7357754688778 478.5477681525637Q1043.5305521129453 486.89470397530545 1035.5842692096949 491.85834847789585Q1027.660244801972 496.8219929804863 1015.640657217224 496.8219929804863ZM1119.966225753732 496.8219929804863L1119.966225753732 496.8219929804863Q1107.946638168984 496.8219929804863 1098.4200020832945 491.368661576295Q1088.8711075020783 485.9153301721038 1083.4177760978869 476.23288461772336Q1077.9867031892231 466.52818056781564 1077.9867031892231 453.8630966127755L1077.9867031892231 453.8630966127755Q1077.9867031892231 441.0422031890442 1083.4177760978869 431.4265331212457Q1088.8711075020783 421.81086305344724 1098.4200020832945 416.4465656313652Q1107.946638168984 411.0822682092832 1119.966225753732 411.0822682092832L1119.966225753732 411.0822682092832Q1131.0286980308056 411.0822682092832 1139.7540282775117 416.04591271187365Q1148.501617019745 421.00955721446405 1153.710104973136 430.5584517956806Q1158.9185929265268 440.0850878813698 1158.9185929265268 453.8630966127755L1158.9185929265268 453.8630966127755Q1158.9185929265268 467.48529587549 1153.776880459718 477.1009659432885Q1148.6574264884362 486.71663601108696 1139.9098377462028 491.76931449578666Q1131.1845074994972 496.8219929804863 1119.966225753732 496.8219929804863ZM1120.7675315927154 486.71663601108696L1120.7675315927154 486.71663601108696Q1129.7377052902216 486.71663601108696 1136.8826823544887 482.643331329589Q1144.005400923228 478.5477681525637 1148.1009641002533 471.0911721509145Q1152.1742687817514 463.65683464479247 1152.1742687817514 453.8630966127755L1152.1742687817514 453.8630966127755Q1152.1742687817514 443.93580760759465 1148.1009641002533 436.56824558805465Q1144.005400923228 429.2006835685146 1136.8826823544887 425.1051203914893Q1129.7377052902216 421.00955721446405 1120.7675315927154 421.00955721446405L1120.7675315927154 421.00955721446405Q1111.9531673638999 421.00955721446405 1104.8972242817422 425.1051203914893Q1097.8412811995845 429.2006835685146 1093.6789425359775 436.56824558805465Q1089.51660387237 443.93580760759465 1089.51660387237 453.8630966127755L1089.51660387237 453.8630966127755Q1089.51660387237 463.65683464479247 1093.6789425359775 471.0911721509145Q1097.8412811995845 478.5477681525637 1104.8972242817422 482.643331329589Q1111.9531673638999 486.71663601108696 1120.7675315927154 486.71663601108696ZM1163.3925505275165 496.02068714150306L1152.5081462146613 496.02068714150306L1152.5081462146613 470.69051923142285L1153.6210709910265 453.7072871440843L1152.0184593130602 436.72405505674584L1152.0184593130602 377.1158040346062L1163.3925505275165 377.1158040346062L1163.3925505275165 496.02068714150306ZM1206.5072563639183 496.02068714150306L1195.1331651494625 496.02068714150306L1195.1331651494625 411.88357404826644L1206.5072563639183 411.88357404826644L1206.5072563639183 496.02068714150306ZM1200.8981154910357 393.2977302829615L1200.8981154910357 393.2977302829615Q1197.3812731977205 393.2977302829615 1194.9773556807713 390.8938127660119Q1192.5734381638213 388.4898952490623 1192.5734381638213 385.1288624244383L1192.5734381638213 385.1288624244383Q1192.5734381638213 381.74557110428697 1194.9773556807713 379.43068756944655Q1197.3812731977205 377.1158040346062 1200.8981154910357 377.1158040346062L1200.8981154910357 377.1158040346062Q1204.414957784351 377.1158040346062 1206.8188753013005 379.34165358733736Q1209.2227928182501 381.5897616355958 1209.2227928182501 384.9507944602198L1209.2227928182501 384.9507944602198Q1209.2227928182501 388.4898952490623 1206.90790928341 390.8938127660119Q1204.5930257485697 393.2977302829615 1200.8981154910357 393.2977302829615ZM1301.86265120292 496.02068714150306L1290.9559883945376 496.02068714150306L1290.9559883945376 477.43484337619816L1290.4885599884637 474.3854294889565L1290.4885599884637 443.29031123730266Q1290.4885599884637 432.5617163931386 1284.47876619609 426.796766051565Q1278.4689724037157 421.00955721446405 1266.6051942876588 421.00955721446405L1266.6051942876588 421.00955721446405Q1258.4363264291355 421.00955721446405 1251.0687644095956 423.74735216432333Q1243.6789438945284 426.4628886186553 1238.5594899232465 430.9591047151722L1238.5594899232465 430.9591047151722L1233.440035951965 422.4563594237393Q1239.8504826638305 417.003028019548 1248.8206563613371 414.0426481144156Q1257.7908300588433 411.0822682092832 1267.7181190640244 411.0822682092832L1267.7181190640244 411.0822682092832Q1284.0781132765983 411.0822682092832 1292.9592529919955 419.18436058122455Q1301.86265120292 427.26419445763855 1301.86265120292 443.7799981389035L1301.86265120292 443.7799981389035L1301.86265120292 496.02068714150306ZM1261.9531687224508 496.8219929804863L1261.9531687224508 496.8219929804863Q1252.4933081233435 496.8219929804863 1245.5263990232952 493.7058036066627Q1238.5594899232465 490.5673557373118 1234.8645796657129 485.0472488465386Q1231.1919279037065 479.5048834602381 1231.1919279037065 472.2931309093893L1231.1919279037065 472.2931309093893Q1231.1919279037065 465.72687472883246 1234.30811727753 460.36257730675044Q1237.4465651468809 454.9982798846684 1244.5692837156207 451.70402254662633Q1251.6920022843601 448.4320237041116 1263.7115898691081 448.4320237041116L1263.7115898691081 448.4320237041116L1292.7366680367222 448.4320237041116L1292.7366680367222 456.91251050001716L1264.045467302018 456.91251050001716Q1251.870070248579 456.91251050001716 1247.1290107012614 461.25291712784286Q1242.4102096494717 465.57106526014127 1242.4102096494717 471.9815119720069L1242.4102096494717 471.9815119720069Q1242.4102096494717 479.19326452285577 1248.0193505223538 483.5114126551542Q1253.6284913952363 487.8518192829799 1263.7115898691081 487.8518192829799L1263.7115898691081 487.8518192829799Q1273.327259936907 487.8518192829799 1280.3164275324825 483.4446371685722Q1287.2833366325308 479.0374550541646 1290.4885599884637 470.69051923142285L1290.4885599884637 470.69051923142285L1293.0482869741045 478.5477681525637Q1289.843063618172 486.89470397530545 1281.9190392104492 491.85834847789585Q1273.9727563071988 496.8219929804863 1261.9531687224508 496.8219929804863ZM1426.2208657140081 496.9778024491775L1426.2208657140081 496.9778024491775Q1413.555781758968 496.9778024491775 1402.7381529326944 492.72642980346103Q1391.9205241064215 488.49731565327187 1383.9964996986987 480.7068422187129Q1376.072475290976 472.93862727968127 1371.665293176568 462.61068535500885Q1367.2581110621604 452.2604849348091 1367.2581110621604 439.9292784126786L1367.2581110621604 439.9292784126786Q1367.2581110621604 427.59807189054817 1371.665293176568 417.24787147034846Q1376.072475290976 406.919929545676 1383.9964996986987 399.15171460664436Q1391.9205241064215 391.3612411720854 1402.6713774461127 387.1321270218963Q1413.3999722902768 382.8807543761798 1426.2208657140081 382.8807543761798L1426.2208657140081 382.8807543761798Q1438.885949669048 382.8807543761798 1449.614544513212 387.1321270218963Q1460.3653978529037 391.3612411720854 1468.2894222606265 399.0626806245351Q1476.2357051638764 406.76412007698485 1480.642887278284 417.1810959837665Q1485.050069392692 427.59807189054817 1485.050069392692 439.9292784126786L1485.050069392692 439.9292784126786Q1485.050069392692 452.2604849348091 1480.642887278284 462.67746084159074Q1476.2357051638764 473.09443674837246 1468.2894222606265 480.79587620082214Q1460.3653978529037 488.49731565327187 1449.614544513212 492.72642980346103Q1438.885949669048 496.9778024491775 1426.2208657140081 496.9778024491775ZM1426.2208657140081 486.40501707370464L1426.2208657140081 486.40501707370464Q1436.3262226834072 486.40501707370464 1444.8957434614222 482.95495026697137Q1453.4652642394371 479.5048834602381 1459.808935464721 473.1834707304817Q1466.130348194477 466.8620580007253 1469.6471904877922 458.44834669140164Q1473.186291276635 450.03463538207797 1473.186291276635 439.9292784126786L1473.186291276635 439.9292784126786Q1473.186291276635 429.82392144327935 1469.6471904877922 421.4102101339557Q1466.130348194477 412.996498824632 1459.808935464721 406.67508609487555Q1453.4652642394371 400.35367336511916 1444.8957434614222 396.90360655838595Q1436.3262226834072 393.45353975165267 1426.2208657140081 393.45353975165267L1426.2208657140081 393.45353975165267Q1416.1377672401359 393.45353975165267 1407.479212480012 396.90360655838595Q1398.8206577198875 400.35367336511916 1392.4992449901315 406.67508609487555Q1386.1555737648478 412.996498824632 1382.5496974894231 421.4102101339557Q1378.943821213999 429.82392144327935 1378.943821213999 439.9292784126786L1378.943821213999 439.9292784126786Q1378.943821213999 449.8565674178595 1382.5496974894231 458.3593127092924Q1386.1555737648478 466.8620580007253 1392.4992449901315 473.1834707304817Q1398.8206577198875 479.5048834602381 1407.479212480012 482.95495026697137Q1416.1377672401359 486.40501707370464 1426.2208657140081 486.40501707370464ZM1537.1349489266 496.02068714150306L1526.3840955869086 496.02068714150306L1494.6657394604904 411.88357404826644L1505.5501437733456 411.88357404826644L1534.3971539767408 489.9218593670198L1529.4335094741505 489.9218593670198L1559.081825516529 411.88357404826644L1568.8533050530186 411.88357404826644L1598.190002158015 489.9218593670198L1593.2263576554246 489.9218593670198L1622.5407962648937 411.88357404826644L1632.957772171675 411.88357404826644L1601.061348081038 496.02068714150306L1590.332753236874 496.02068714150306L1562.131239403771 422.6121688924305L1565.4922722283945 422.6121688924305L1537.1349489266 496.02068714150306ZM1711.1741254546473 496.02068714150306L1700.2674626462644 496.02068714150306L1700.2674626462644 477.43484337619816L1699.800034240191 474.3854294889565L1699.800034240191 443.29031123730266Q1699.800034240191 432.5617163931386 1693.7902404478173 426.796766051565Q1687.780446655443 421.00955721446405 1675.9166685393861 421.00955721446405L1675.9166685393861 421.00955721446405Q1667.7478006808628 421.00955721446405 1660.3579801657957 423.74735216432333Q1652.9904181462553 426.4628886186553 1647.8709641749738 430.9591047151722L1647.8709641749738 430.9591047151722L1642.7292517081646 422.4563594237393Q1649.1396984200305 417.003028019548 1658.1321306130644 414.0426481144156Q1667.1023043105706 411.0822682092832 1677.0295933157518 411.0822682092832L1677.0295933157518 411.0822682092832Q1693.3895875283256 411.0822682092832 1702.2707272437228 419.18436058122455Q1711.1741254546473 427.26419445763855 1711.1741254546473 443.7799981389035L1711.1741254546473 443.7799981389035L1711.1741254546473 496.02068714150306ZM1671.264642974178 496.8219929804863L1671.264642974178 496.8219929804863Q1661.8047823750708 496.8219929804863 1654.8378732750225 493.7058036066627Q1647.8709641749738 490.5673557373118 1644.1760539174402 485.0472488465386Q1640.5034021554338 479.5048834602381 1640.5034021554338 472.2931309093893L1640.5034021554338 472.2931309093893Q1640.5034021554338 465.72687472883246 1643.6195915292574 460.36257730675044Q1646.735780903081 454.9982798846684 1653.880757967348 451.70402254662633Q1661.0034765360874 448.4320237041116 1673.0230641208354 448.4320237041116L1673.0230641208354 448.4320237041116L1702.0258837929223 448.4320237041116L1702.0258837929223 456.91251050001716L1673.3569415537454 456.91251050001716Q1661.1592860047786 456.91251050001716 1656.4404849529888 461.25291712784286Q1651.7216839011985 465.57106526014127 1651.7216839011985 471.9815119720069L1651.7216839011985 471.9815119720069Q1651.7216839011985 479.19326452285577 1657.330824774081 483.5114126551542Q1662.9399656469636 487.8518192829799 1673.0230641208354 487.8518192829799L1673.0230641208354 487.8518192829799Q1682.6387341886339 487.8518192829799 1689.6056432886821 483.4446371685722Q1696.5948108842585 479.0374550541646 1699.800034240191 470.69051923142285L1699.800034240191 470.69051923142285L1702.3597612258318 478.5477681525637Q1699.1545378698993 486.89470397530545 1691.2082549666488 491.85834847789585Q1683.284230558926 496.8219929804863 1671.264642974178 496.8219929804863ZM1753.4875254520662 496.02068714150306L1742.0911757420827 496.02068714150306L1742.0911757420827 411.88357404826644L1753.4875254520662 411.88357404826644L1753.4875254520662 496.02068714150306ZM1747.8783845791836 393.2977302829615L1747.8783845791836 393.2977302829615Q1744.3392837903411 393.2977302829615 1741.9353662733915 390.8938127660119Q1739.531448756442 388.4898952490623 1739.531448756442 385.1288624244383L1739.531448756442 385.1288624244383Q1739.531448756442 381.74557110428697 1741.9353662733915 379.43068756944655Q1744.3392837903411 377.1158040346062 1747.8783845791836 377.1158040346062L1747.8783845791836 377.1158040346062Q1751.3952268724988 377.1158040346062 1753.7991443894484 379.34165358733736Q1756.203061906398 381.5897616355958 1756.203061906398 384.9507944602198L1756.203061906398 384.9507944602198Q1756.203061906398 388.4898952490623 1753.8881783715574 390.8938127660119Q1751.55103634119 393.2977302829615 1747.8783845791836 393.2977302829615ZM1807.7982545387058 496.8219929804863L1807.7982545387058 496.8219929804863Q1797.381278631924 496.8219929804863 1788.0994859970351 493.8616130753539Q1778.795434866619 490.9012331702215 1773.5201714266464 486.40501707370464L1773.5201714266464 486.40501707370464L1778.6396253979278 477.43484337619816Q1783.7590793692093 481.285563102423 1791.7721377590415 484.0901335388642Q1799.7851961488732 486.89470397530545 1808.5995603776887 486.89470397530545L1808.5995603776887 486.89470397530545Q1820.6191479624367 486.89470397530545 1825.916669897937 483.11075973566255Q1831.2141918334369 479.34907399154696 1831.2141918334369 473.09443674837246L1831.2141918334369 473.09443674837246Q1831.2141918334369 468.46466967869173 1828.2315534327772 465.81590871094164Q1825.2711735276448 463.1671477431916 1820.4633384937456 461.8093795160257Q1815.6555034598464 460.4516112888596 1809.7347436495816 459.47223748565796Q1803.7917253437895 458.5151221779836 1797.9599995156336 457.24638793292684Q1792.106015191951 455.9553951923428 1787.2981801580518 453.4624436932839Q1782.4903451241526 450.99175068975234 1779.5299652190201 446.65134406192664Q1776.54732681836 442.3331959296283 1776.54732681836 435.1214433787794L1776.54732681836 435.1214433787794Q1776.54732681836 428.2213097653129 1780.3980465445852 422.79023685664896Q1784.24876627081 417.3369054524577 1791.7053622724593 414.1984575831068Q1799.1619582741087 411.0822682092832 1809.8905531182727 411.0822682092832L1809.8905531182727 411.0822682092832Q1818.0594209767955 411.0822682092832 1826.2282888353193 413.24134227543243Q1834.4194151893698 415.4004163415816 1839.6946786293424 418.9395171304241L1839.6946786293424 418.9395171304241L1834.731034126752 428.06550029662174Q1829.1218932538695 424.2147805703969 1822.711446542004 422.54539340584853Q1816.3009998301382 420.85374774577286 1809.8905531182727 420.85374774577286L1809.8905531182727 420.85374774577286Q1798.5164619038164 420.85374774577286 1793.1521644817349 424.793501454107Q1787.7656085641252 428.7109966669138 1787.7656085641252 434.80982444139704L1787.7656085641252 434.80982444139704Q1787.7656085641252 439.6176594752963 1790.7482469647848 442.3331959296283Q1793.7086268699177 445.04873238396027 1798.5832373903986 446.5845685753447Q1803.4801064064072 448.09814627120187 1809.3340907300899 449.05526157887624Q1815.1880750537725 450.03463538207797 1821.0198008819284 451.39240360924396Q1826.873785205611 452.75017183640995 1831.7706542216197 455.0650553712503Q1836.645264742101 457.402197401618 1839.6279031427607 461.6535700473344Q1842.5882830478931 465.8826841975236 1842.5882830478931 472.78281781099014L1842.5882830478931 472.78281781099014Q1842.5882830478931 480.15037983053014 1838.4927198708679 485.51467725261216Q1834.4194151893698 490.9012331702215 1826.628941754811 493.8616130753539Q1818.860726815779 496.8219929804863 1807.7982545387058 496.8219929804863Z " fill="#fad744" transform="matrix(0.47487546305961237,0,0,0.47487546305961237,0,85.30129311139709)"/></g></svg>