<?xml version="1.0" encoding="UTF-8"?> <!-- Generator: Adobe Illustrator 25.0.1, SVG Export Plug-In . SVG Version: 6.00 Build 0) --> <svg xmlns="http://www.w3.org/2000/svg" xmlns:xlink="http://www.w3.org/1999/xlink" version="1.1" x="0px" y="0px" viewBox="0 0 540 340" style="enable-background:new 0 0 540 340;" xml:space="preserve"> <style type="text/css"> .st0{display:none;} .st1{display:inline;fill:rgb(180 4 81);} .st2{fill:rgb(180 4 81);} .st3{fill:none;stroke:rgb(180 4 81);stroke-width:1.5;stroke-linecap:round;stroke-linejoin:round;stroke-miterlimit:10;} .st4{fill:rgb(242 201 219);} .st5{fill:rgb(242 201 219);} .st6{fill:#FFFFFF;} .st7{fill:rgb(242 201 219);} .st8{clip-path:url(#SVGID_2_);fill:rgb(242 201 219);} .st9{fill:rgb(242 201 219);} .st10{clip-path:url(#SVGID_4_);fill:rgb(242 201 219);} .st11{clip-path:url(#SVGID_6_);fill:#0064FF;} .st12{fill:#F2F7FF;stroke:#0064FF;stroke-width:1.5;stroke-linecap:round;stroke-linejoin:round;stroke-miterlimit:10;} .st13{clip-path:url(#SVGID_8_);fill:#0064FF;} .st14{clip-path:url(#SVGID_10_);fill:#0064FF;} .st15{clip-path:url(#SVGID_12_);fill:#0064FF;} .st16{fill:#E5EFFF;stroke:#0064FF;stroke-width:1.5;stroke-linecap:round;stroke-linejoin:round;stroke-miterlimit:10;} .st17{clip-path:url(#SVGID_14_);fill:#0064FF;} .st18{clip-path:url(#SVGID_16_);fill:#0064FF;} .st19{clip-path:url(#SVGID_18_);fill:#0064FF;} .st20{clip-path:url(#SVGID_20_);fill:#0064FF;} </style> <g id="Background" class="st0"> <rect x="-1736.6" y="-2295.5" class="st1" width="6972.2" height="4389.9"></rect> </g> <g id="Artwork"> <rect y="309.2" class="st2" width="540" height="1.5"></rect> <path class="st2" d="M306.8,1.5v208.8H55.7V1.5H306.8 M308.3,0H54.2v211.8h254.1V0L308.3,0z"></path> <g> <rect x="54.2" y="41.6" class="st2" width="254.1" height="1.5"></rect> </g> <circle class="st2" cx="77.5" cy="21.2" r="6.4"></circle> <circle class="st2" cx="98.6" cy="21.2" r="6.4"></circle> <circle class="st2" cx="119.8" cy="21.2" r="6.4"></circle> <g> <g> <g> <rect x="159.4" y="76.1" class="st4" width="72.8" height="72.8"></rect> <path class="st2" d="M232.2,149.6h-72.8c-0.4,0-0.8-0.3-0.8-0.8V76.1c0-0.4,0.3-0.8,0.8-0.8h72.8c0.4,0,0.8,0.3,0.8,0.8v72.8 C232.9,149.3,232.6,149.6,232.2,149.6z M160.1,148.1h71.3V76.8h-71.3V148.1z"></path> </g> <g> <rect x="144.8" y="90.7" class="st4" width="72.8" height="72.8"></rect> <path class="st2" d="M217.6,164.2h-72.8c-0.4,0-0.8-0.3-0.8-0.8V90.7c0-0.4,0.3-0.8,0.8-0.8h72.8c0.4,0,0.8,0.3,0.8,0.8v72.8 C218.4,163.9,218,164.2,217.6,164.2z M145.6,162.7h71.3V91.4h-71.3V162.7z"></path> </g> </g> <g> <rect x="130.3" y="105.2" class="st4" width="72.8" height="72.8"></rect> <path class="st2" d="M203.1,178.8h-72.8c-0.4,0-0.8-0.3-0.8-0.8v-72.8c0-0.4,0.3-0.8,0.8-0.8h72.8c0.4,0,0.8,0.3,0.8,0.8V178 C203.8,178.4,203.5,178.8,203.1,178.8z M131,177.3h71.3V106H131V177.3z"></path> </g> </g> <g> <g> <rect x="160.1" y="191.4" class="st5" width="75" height="62.5"></rect> <path class="st2" d="M235.1,254.7h-75c-0.4,0-0.8-0.3-0.8-0.8v-62.5c0-0.4,0.3-0.8,0.8-0.8h75c0.4,0,0.8,0.3,0.8,0.8v62.5 C235.9,254.3,235.5,254.7,235.1,254.7z M160.9,253.2h73.5v-61h-73.5V253.2z"></path> </g> <g> <rect x="160.1" y="203.2" class="st2" width="75" height="1.5"></rect> </g> <circle class="st2" cx="167" cy="197.7" r="1.9"></circle> <circle class="st2" cx="173.3" cy="197.7" r="1.9"></circle> <circle class="st2" cx="179.5" cy="197.7" r="1.9"></circle> <g> <rect x="177.6" y="211.4" class="st4" width="40" height="35"></rect> <path class="st2" d="M217.6,247.2h-40c-0.4,0-0.8-0.3-0.8-0.8v-35c0-0.4,0.3-0.8,0.8-0.8h40c0.4,0,0.8,0.3,0.8,0.8v35 C218.4,246.8,218,247.2,217.6,247.2z M178.4,245.7h38.5v-33.5h-38.5V245.7z"></path> </g> <g> <g> <line class="st4" x1="200.1" y1="222.7" x2="195.1" y2="235.2"></line> <path class="st2" d="M195.1,235.9c-0.1,0-0.2,0-0.3-0.1c-0.4-0.2-0.6-0.6-0.4-1l5-12.5c0.2-0.4,0.6-0.6,1-0.4 c0.4,0.2,0.6,0.6,0.4,1l-5,12.5C195.7,235.7,195.4,235.9,195.1,235.9z"></path> </g> <g> <path class="st2" d="M205.1,234.7c-0.2,0-0.4-0.1-0.5-0.2c-0.3-0.3-0.3-0.8,0-1.1l4.5-4.5l-4.5-4.5c-0.3-0.3-0.3-0.8,0-1.1 s0.8-0.3,1.1,0l5,5c0.3,0.3,0.3,0.8,0,1.1l-5,5C205.5,234.6,205.3,234.7,205.1,234.7z"></path> <path class="st2" d="M190.1,234.7c-0.2,0-0.4-0.1-0.5-0.2l-5-5c-0.3-0.3-0.3-0.8,0-1.1l5-5c0.3-0.3,0.8-0.3,1.1,0s0.3,0.8,0,1.1 l-4.5,4.5l4.5,4.5c0.3,0.3,0.3,0.8,0,1.1C190.5,234.6,190.3,234.7,190.1,234.7z"></path> </g> </g> </g> <g> <g> <rect x="245.9" y="221.4" class="st5" width="75" height="62.5"></rect> <path class="st2" d="M320.9,284.7h-75c-0.4,0-0.8-0.3-0.8-0.8v-62.5c0-0.4,0.3-0.8,0.8-0.8h75c0.4,0,0.8,0.3,0.8,0.8v62.5 C321.7,284.3,321.3,284.7,320.9,284.7z M246.7,283.2h73.5v-61h-73.5V283.2z"></path> </g> <g> <rect x="245.9" y="233.2" class="st2" width="75" height="1.5"></rect> </g> <circle class="st2" cx="252.8" cy="227.7" r="1.9"></circle> <circle class="st2" cx="259" cy="227.7" r="1.9"></circle> <circle class="st2" cx="265.3" cy="227.7" r="1.9"></circle> <g> <path class="st4" d="M300.8,258.2c0,9.6-7.8,17.5-17.4,17.5c-9.6,0-17.3-8.1-17.3-17.8c0-9.4,7.4-16.6,16.6-17c0.3,0,0.5,0,0.8,0 C293.1,240.9,300.8,248.6,300.8,258.2z"></path> <path class="st2" d="M283.4,276.4c-10,0-18.1-8.3-18.1-18.5c0-9.7,7.5-17.3,17.4-17.7c0.3,0,0.5,0,0.8,0c10,0,18.1,8.1,18.1,18.1 C301.6,268.2,293.4,276.4,283.4,276.4z M283.4,241.6c-0.2,0-0.5,0-0.7,0c-9.1,0.4-15.9,7.3-15.9,16.2c0,9.4,7.4,17,16.6,17 c9.2,0,16.7-7.5,16.7-16.7C300.1,249.1,292.6,241.6,283.4,241.6z"></path> </g> <path class="st2" d="M282.1,276.1c-9.2-12.3-9.2-25.7,0-35.7l1.1,1c-8.9,9.6-8.8,21.9,0,33.8L282.1,276.1z"></path> <path class="st2" d="M284.8,276.1l-1.2-0.9c8.9-11.9,8.9-24.2,0-33.8l1.1-1C294,250.4,294,263.8,284.8,276.1z"></path> <rect x="268.3" y="265.8" class="st2" width="30.3" height="1.5"></rect> <rect x="268.9" y="247.7" class="st2" width="28.8" height="1.5"></rect> <rect x="266" y="256.7" class="st2" width="34.7" height="1.5"></rect> </g> <g> <g> <rect x="270.1" y="52.6" class="st5" width="75" height="62.5"></rect> <path class="st2" d="M343.6,54.1v59.5h-72V54.1H343.6 M345.1,52.6h-75v62.5h75V52.6L345.1,52.6z"></path> </g> <g> <rect x="270.1" y="64.4" class="st2" width="75" height="1.5"></rect> </g> <circle class="st2" cx="277" cy="58.9" r="1.9"></circle> <circle class="st2" cx="283.2" cy="58.9" r="1.9"></circle> <circle class="st2" cx="289.5" cy="58.9" r="1.9"></circle> <g> <rect x="301.3" y="72.6" class="st4" width="12.5" height="12.5"></rect> <path class="st2" d="M313.8,85.9h-12.5c-0.4,0-0.8-0.3-0.8-0.8V72.6c0-0.4,0.3-0.8,0.8-0.8h12.5c0.4,0,0.8,0.3,0.8,0.8v12.5 C314.6,85.5,314.3,85.9,313.8,85.9z M302.1,84.4h11v-11h-11V84.4z"></path> </g> <g> <rect x="301.3" y="92.6" class="st4" width="12.5" height="12.5"></rect> <path class="st2" d="M313.8,105.9h-12.5c-0.4,0-0.8-0.3-0.8-0.8V92.6c0-0.4,0.3-0.8,0.8-0.8h12.5c0.4,0,0.8,0.3,0.8,0.8v12.5 C314.6,105.5,314.3,105.9,313.8,105.9z M302.1,104.4h11v-11h-11V104.4z"></path> </g> <g> <g> <rect x="321.3" y="92.6" class="st4" width="12.5" height="12.5"></rect> <path class="st2" d="M333.8,105.9h-12.5c-0.4,0-0.8-0.3-0.8-0.8V92.6c0-0.4,0.3-0.8,0.8-0.8h12.5c0.4,0,0.8,0.3,0.8,0.8v12.5 C334.6,105.5,334.3,105.9,333.8,105.9z M322.1,104.4h11v-11h-11V104.4z"></path> </g> <g> <rect x="281.3" y="92.6" class="st4" width="12.5" height="12.5"></rect> <path class="st2" d="M293.8,105.9h-12.5c-0.4,0-0.8-0.3-0.8-0.8V92.6c0-0.4,0.3-0.8,0.8-0.8h12.5c0.4,0,0.8,0.3,0.8,0.8v12.5 C294.6,105.5,294.3,105.9,293.8,105.9z M282.1,104.4h11v-11h-11V104.4z"></path> </g> </g> <g> <path class="st2" d="M307.6,93.4c-0.4,0-0.8-0.3-0.8-0.8v-7.5c0-0.4,0.3-0.8,0.8-0.8s0.8,0.3,0.8,0.8v7.5 C308.3,93,308,93.4,307.6,93.4z"></path> </g> <g> <path class="st2" d="M287.5,93.4c-0.4,0-0.8-0.3-0.8-0.8V78.9c0-0.4,0.3-0.8,0.8-0.8H301c0.4,0,0.8,0.3,0.8,0.8s-0.3,0.8-0.8,0.8 h-12.7v13C288.2,93,287.9,93.4,287.5,93.4z"></path> <path class="st2" d="M327.7,93.4c-0.4,0-0.8-0.3-0.8-0.8v-13h-12.7c-0.4,0-0.8-0.3-0.8-0.8s0.3-0.8,0.8-0.8h13.5 c0.4,0,0.8,0.3,0.8,0.8v13.8C328.4,93,328.1,93.4,327.7,93.4z"></path> </g> </g> <g> <g> <polyline class="st5" points="46.4,339 42.1,296.5 93.2,296.5 88.9,339 "></polyline> <path class="st2" d="M88.9,339.8C88.9,339.8,88.9,339.7,88.9,339.8c-0.5,0-0.8-0.4-0.7-0.8l4.2-41.7H43l4.2,41.7 c0,0.4-0.3,0.8-0.7,0.8c-0.4,0-0.8-0.3-0.8-0.7l-4.3-42.5c0-0.2,0-0.4,0.2-0.6s0.3-0.2,0.6-0.2h51c0.2,0,0.4,0.1,0.6,0.2 s0.2,0.4,0.2,0.6l-4.3,42.5C89.6,339.5,89.3,339.8,88.9,339.8z"></path> </g> <g> <line class="st7" x1="67.6" y1="294.8" x2="67.6" y2="271.2"></line> <path class="st2" d="M67.6,295.5c-0.4,0-0.8-0.3-0.8-0.8v-23.5c0-0.4,0.3-0.8,0.8-0.8s0.8,0.3,0.8,0.8v23.5 C68.4,295.2,68.1,295.5,67.6,295.5z"></path> </g> <g> <ellipse class="st4" cx="67.6" cy="262.6" rx="5" ry="8.6"></ellipse> <path class="st2" d="M67.6,272c-0.1,0-0.3,0-0.4-0.1c-3.3-1.9-5.3-5.5-5.3-9.3c0-3.8,2-7.3,5.3-9.3c0.2-0.1,0.5-0.1,0.8,0 c3.3,1.9,5.4,5.5,5.4,9.3c0,3.8-2.1,7.3-5.4,9.3C67.9,271.9,67.8,272,67.6,272z M67.6,254.9c-2.6,1.7-4.2,4.6-4.2,7.7 c0,3.1,1.6,6,4.2,7.7c2.6-1.7,4.2-4.6,4.2-7.7C71.9,259.5,70.3,256.6,67.6,254.9z"></path> </g> <g> <ellipse class="st4" cx="59" cy="277" rx="8.6" ry="5"></ellipse> <path class="st2" d="M59,282.7c-3.8,0-7.3-2-9.3-5.3c-0.1-0.2-0.1-0.5,0-0.8c1.9-3.3,5.5-5.3,9.3-5.3s7.3,2,9.3,5.3 c0.1,0.2,0.1,0.5,0,0.8C66.4,280.6,62.8,282.7,59,282.7z M51.3,277c1.7,2.6,4.6,4.2,7.7,4.2c3.1,0,6-1.6,7.7-4.2 c-1.7-2.6-4.6-4.2-7.7-4.2C55.9,272.7,53,274.3,51.3,277z"></path> </g> <g> <ellipse class="st4" cx="76.3" cy="277" rx="8.6" ry="5"></ellipse> <path class="st2" d="M76.3,282.7c-3.8,0-7.3-2-9.3-5.3c-0.1-0.2-0.1-0.5,0-0.8c1.9-3.3,5.5-5.3,9.3-5.3s7.3,2,9.3,5.3 c0.1,0.2,0.1,0.5,0,0.8C83.6,280.6,80.1,282.7,76.3,282.7z M68.5,277c1.7,2.6,4.6,4.2,7.7,4.2s6-1.6,7.7-4.2 c-1.7-2.6-4.6-4.2-7.7-4.2S70.2,274.3,68.5,277z"></path> </g> <g> <defs> <polyline id="SVGID_3_" points="46.4,339 42.1,296.5 93.2,296.5 88.9,339 "></polyline> </defs> <clipPath id="SVGID_2_"> <use xlink:href="#SVGID_3_" style="overflow:visible;"></use> </clipPath> <polyline class="st8" points="95.3,309.2 95.3,300.7 40,300.7 "></polyline> </g> <path class="st2" d="M88.9,339.8H46.4c-0.4,0-0.7-0.3-0.7-0.7l-4.3-42.5c0-0.2,0-0.4,0.2-0.6s0.3-0.2,0.6-0.2h51 c0.2,0,0.4,0.1,0.6,0.2s0.2,0.4,0.2,0.6l-4.3,42.5C89.6,339.5,89.3,339.8,88.9,339.8z M47.1,338.2h41.2l4.1-41H43L47.1,338.2z"></path> <g> <rect x="40" y="292.2" transform="matrix(-1 -4.484514e-11 4.484514e-11 -1 135.2856 592.9453)" class="st5" width="55.3" height="8.5"></rect> <path class="st2" d="M95.3,301.5H40c-0.4,0-0.8-0.3-0.8-0.8v-8.5c0-0.4,0.3-0.8,0.8-0.8h55.3c0.4,0,0.8,0.3,0.8,0.8v8.5 C96,301.1,95.7,301.5,95.3,301.5z M40.8,300h53.8v-7H40.8V300z"></path> </g> </g> <g> <g> <g> <polyline class="st5" points="431.8,321.9 425.6,304.5 412.6,309.6 415.4,317.6 "></polyline> <path class="st2" d="M431.8,322.7c-0.3,0-0.6-0.2-0.7-0.5l-5.9-16.7l-11.6,4.6l2.6,7.3c0.1,0.4-0.1,0.8-0.5,1 c-0.4,0.1-0.8-0.1-1-0.5l-2.9-7.9c-0.1-0.4,0.1-0.8,0.4-1l13-5.2c0.2-0.1,0.4-0.1,0.6,0c0.2,0.1,0.3,0.2,0.4,0.4l6.2,17.5 c0.1,0.4-0.1,0.8-0.5,1C431.9,322.7,431.8,322.7,431.8,322.7z"></path> </g> <polyline class="st2" points="412.2,308.4 414,313.6 428,311.6 426,304.9 "></polyline> <g> <rect x="395.1" y="330.4" transform="matrix(0.9595 -0.2818 0.2818 0.9595 -76.7128 130.4713)" class="st5" width="40.2" height="3"></rect> <path class="st2" d="M396.3,339.8c-0.1,0-0.2,0-0.4-0.1c-0.2-0.1-0.3-0.3-0.4-0.4l-0.8-2.8c-0.1-0.4,0.1-0.8,0.5-0.9l38.6-11.3 c0.2-0.1,0.4,0,0.6,0.1c0.2,0.1,0.3,0.3,0.4,0.4l0.8,2.8c0.1,0.4-0.1,0.8-0.5,0.9l-38.6,11.3 C396.5,339.7,396.4,339.8,396.3,339.8z M396.4,336.7l0.4,1.4l37.2-10.9l-0.4-1.4L396.4,336.7z"></path> </g> <g> <path class="st5" d="M395.5,336.2L395.5,336.2c-0.5-1.6,0.1-3.3,1.3-4.3l17.7-13.8c0.4-0.4,1.1-0.5,1.6-0.3 c2.2,1,4.7,1.2,7.2,0.4c2.7-0.8,4.8-2.5,6.1-4.7l4.6,11.4l-38.5,11.3"></path> <path class="st2" d="M395.5,336.9c-0.3,0-0.6-0.2-0.7-0.5c-0.5-1.9,0.1-3.9,1.6-5.1l17.8-13.8c0.6-0.6,1.5-0.8,2.4-0.4 c2.1,0.9,4.5,1.1,6.7,0.4c2.4-0.7,4.4-2.2,5.7-4.4c0.1-0.2,0.4-0.4,0.7-0.4c0.3,0,0.5,0.2,0.6,0.5l4.6,11.4 c0.1,0.2,0.1,0.4,0,0.6c-0.1,0.2-0.3,0.3-0.5,0.4l-38.5,11.3c0,0,0,0-0.1,0c0,0,0,0-0.1,0C395.6,336.9,395.5,336.9,395.5,336.9z M415.6,318.3c-0.2,0-0.4,0.1-0.5,0.2l-17.8,13.9c-0.8,0.7-1.3,1.7-1.2,2.8l37-10.9l-3.8-9.3c-1.5,1.8-3.4,3.2-5.7,3.8 c-2.6,0.8-5.3,0.6-7.7-0.5C415.8,318.3,415.7,318.3,415.6,318.3z"></path> </g> <g> <line class="st7" x1="414.5" y1="322.7" x2="411.5" y2="321"></line> <path class="st2" d="M414.5,323.5c-0.1,0-0.3,0-0.4-0.1l-3-1.7c-0.4-0.2-0.5-0.7-0.3-1c0.2-0.4,0.7-0.5,1-0.3l3,1.7 c0.4,0.2,0.5,0.7,0.3,1C415,323.3,414.7,323.5,414.5,323.5z"></path> </g> <g> <line class="st7" x1="411.2" y1="325.2" x2="408.2" y2="323.5"></line> <path class="st2" d="M411.2,325.9c-0.1,0-0.3,0-0.4-0.1l-3-1.7c-0.4-0.2-0.5-0.7-0.3-1c0.2-0.4,0.7-0.5,1-0.3l3,1.7 c0.4,0.2,0.5,0.7,0.3,1C411.7,325.8,411.4,325.9,411.2,325.9z"></path> </g> </g> <g> <g> <g> <g> <g> <g> <g> <g> <g> <g> <g> <g> <g> <g> <g> <g> <g> <g> <g> <g> <path class="st5" d="M448.1,187.6l-67.3,29.3c-7,3-10.2,11.1-7.3,18.2l34.6,79.2l20.6-7.1l-20.6-73.2 l68.8-33.5v-13.9L448.1,187.6z"></path> <path class="st2" d="M408.1,314.9c-0.3,0-0.6-0.2-0.7-0.5l-34.6-79.2c-3.1-7.4,0.4-16,7.7-19.1l67.3-29.3 c0.1,0,0.2-0.1,0.3-0.1l28.8-1c0.2,0,0.4,0.1,0.5,0.2c0.1,0.1,0.2,0.3,0.2,0.5v13.9c0,0.3-0.2,0.5-0.4,0.7 L409,234.3l20.4,72.6c0.1,0.4-0.1,0.8-0.5,0.9l-20.6,7.1C408.2,314.9,408.1,314.9,408.1,314.9z M448.2,188.3 l-67.2,29.2c-6.6,2.9-9.7,10.6-6.9,17.2l34.3,78.6l19.3-6.6l-20.4-72.5c-0.1-0.3,0.1-0.7,0.4-0.9l68.4-33.3 v-12.6L448.2,188.3z"></path> </g> </g> </g> </g> </g> </g> </g> </g> </g> </g> </g> </g> </g> </g> </g> </g> </g> </g> </g> </g> <g> <g> <polyline class="st5" points="401.6,332.6 400.6,314.1 386.6,315.4 387.1,323.8 "></polyline> <path class="st2" d="M401.6,333.4c-0.4,0-0.7-0.3-0.7-0.7l-1-17.7l-12.4,1.2l0.5,7.7c0,0.4-0.3,0.8-0.7,0.8 c-0.4,0-0.8-0.3-0.8-0.7l-0.5-8.4c0-0.4,0.3-0.8,0.7-0.8l13.9-1.3c0.2,0,0.4,0,0.6,0.2c0.2,0.1,0.2,0.3,0.3,0.5l1,18.5 C402.4,333,402,333.3,401.6,333.4C401.6,333.4,401.6,333.4,401.6,333.4z"></path> </g> <polyline class="st2" points="386.6,314.1 386.9,319.6 400.9,321.7 400.9,314.7 "></polyline> <g> <rect x="362.8" y="336" class="st5" width="40.2" height="3"></rect> <path class="st2" d="M403,339.8h-40.2c-0.4,0-0.8-0.3-0.8-0.8v-3c0-0.4,0.3-0.8,0.8-0.8H403c0.4,0,0.8,0.3,0.8,0.8v3 C403.7,339.4,403.4,339.8,403,339.8z M363.5,338.2h38.7v-1.5h-38.7V338.2z"></path> </g> <g> <path class="st5" d="M362.8,336L362.8,336c0-1.6,1-3.1,2.5-3.8l20.9-8.3c0.5-0.3,1.2-0.2,1.6,0.2c1.8,1.5,4.2,2.5,6.8,2.5 c2.8,0,5.3-1.1,7.2-2.8L403,336h-40.1"></path> <path class="st2" d="M403,336.8h-40.1c0,0-0.1,0-0.1,0c-0.4,0-0.8-0.3-0.8-0.8c0-2,1.2-3.7,3-4.5l20.9-8.3 c0.7-0.4,1.7-0.3,2.4,0.3c1.8,1.5,4,2.3,6.3,2.3c2.5,0,4.8-0.9,6.7-2.6c0.2-0.2,0.5-0.2,0.8-0.1c0.3,0.1,0.4,0.3,0.5,0.6 l1.2,12.2c0,0.2,0,0.4-0.2,0.6C403.4,336.7,403.2,336.8,403,336.8z M363.6,335.3h38.6l-1-10c-1.9,1.4-4.2,2.1-6.6,2.1 c-2.7,0-5.3-0.9-7.3-2.6c-0.2-0.2-0.5-0.2-0.8-0.1l-21,8.3C364.5,333.4,363.8,334.3,363.6,335.3z"></path> </g> <g> <line class="st7" x1="384.8" y1="328.5" x2="382.4" y2="326"></line> <path class="st2" d="M384.8,329.3c-0.2,0-0.4-0.1-0.5-0.2l-2.4-2.5c-0.3-0.3-0.3-0.8,0-1.1c0.3-0.3,0.8-0.3,1.1,0l2.4,2.5 c0.3,0.3,0.3,0.8,0,1.1C385.2,329.2,385,329.3,384.8,329.3z"></path> </g> <g> <line class="st7" x1="380.9" y1="329.9" x2="378.5" y2="327.5"></line> <path class="st2" d="M380.9,330.7c-0.2,0-0.4-0.1-0.5-0.2L378,328c-0.3-0.3-0.3-0.8,0-1.1c0.3-0.3,0.8-0.3,1.1,0l2.4,2.5 c0.3,0.3,0.3,0.8,0,1.1C381.3,330.6,381.1,330.7,380.9,330.7z"></path> </g> </g> <g> <g> <g> <g> <g> <g> <g> <g> <path class="st2" d="M448.3,84c0.2,0.9,0.8,1.5,1.3,1.4c0.5-0.1,0.7-1,0.5-1.9c-0.2-0.9-0.8-1.5-1.3-1.4 C448.3,82.3,448.1,83.1,448.3,84z"></path> </g> </g> </g> </g> </g> </g> </g> <g> <g> <g> <g> <g> <g> <g> <path class="st2" d="M439.4,86.3c0.2,0.9,0.8,1.5,1.3,1.4c0.5-0.1,0.7-1,0.5-1.9c-0.2-0.9-0.8-1.5-1.3-1.4 C439.4,84.5,439.2,85.4,439.4,86.3z"></path> </g> </g> </g> </g> </g> </g> </g> <g> <g> <g> <g> <g> <g> <g> <path class="st2" d="M452.2,79.6c-0.4-0.9-1.7-2.5-4.7-1.9c-0.4,0.1-0.6,0.4-0.7,0.8l0,0c0,0.5,0.4,0.9,0.9,0.8 c0.8-0.1,2.1,0.1,3.1,1.2c0.3,0.4,0.9,0.4,1.2,0l0.1-0.1C452.3,80.3,452.4,79.9,452.2,79.6z"></path> </g> </g> </g> </g> </g> </g> </g> <g> <g> <g> <g> <g> <g> <g> <path class="st2" d="M436.7,83.3c0-1,0.3-3,3.3-3.9c0.4-0.1,0.8,0.1,0.9,0.4l0,0c0.2,0.4,0.1,1-0.4,1.1 c-0.8,0.3-1.8,1.1-2.2,2.6c-0.1,0.5-0.6,0.7-1,0.6l-0.1,0C436.9,83.9,436.7,83.6,436.7,83.3z"></path> </g> </g> </g> </g> </g> </g> </g> <path class="st2" d="M444.9,88.9c-1.5,0-2.3-0.9-2.5-1.5c-0.1-0.1-0.1-0.3,0-0.4l1.5-7.2c0.1-0.4,0.5-0.7,0.9-0.6 c0.4,0.1,0.7,0.5,0.6,0.9l-1.5,6.9c0.2,0.2,0.7,0.6,1.8,0.3c0.4-0.1,0.8,0.1,0.9,0.5c0.1,0.4-0.1,0.8-0.5,0.9 C445.6,88.9,445.3,88.9,444.9,88.9z"></path> </g> <g> <line class="st7" x1="468.8" y1="111.8" x2="463" y2="86.5"></line> <path class="st2" d="M468.8,112.6c-0.3,0-0.7-0.2-0.7-0.6l-5.8-25.3c-0.1-0.4,0.2-0.8,0.6-0.9c0.4-0.1,0.8,0.2,0.9,0.6l5.8,25.3 c0.1,0.4-0.2,0.8-0.6,0.9C468.9,112.6,468.8,112.6,468.8,112.6z"></path> </g> <g> <line class="st7" x1="449.1" y1="101.1" x2="450.4" y2="113.2"></line> <path class="st2" d="M450.4,114c-0.4,0-0.7-0.3-0.7-0.7l-1.4-12.1c0-0.4,0.2-0.8,0.7-0.8c0.4,0,0.8,0.2,0.8,0.7l1.4,12.1 C451.2,113.6,450.9,113.9,450.4,114C450.5,114,450.5,114,450.4,114z"></path> </g> <g> <g> <path class="st2" d="M461.9,95.5c0.2,6.3-8.3,10.5-14.9,10.3c-6.6-0.2-10.5-11.9-9.1-13.5c2.2-2.4,6.9-1.9,6.9-1.9 c2.3-1.9,5.7-2.3,8.8-2.2c3.1,0.1,4.3-5.5,4.3-5.5l2.2-6.4C460.1,76.4,461.4,81.2,461.9,95.5z"></path> </g> </g> <path class="st2" d="M463.4,67.8c0,0,1.5-3.2-0.3-4c-1.8-0.8-4.2,0.7-4.2,0.7s-1.1-4-5.4-5.1c-6.2-1.6-16.8,2.6-16.8,2.6 s-0.6-4.9-3.9-5.5c-3.3-0.5-0.5,8.4-0.5,8.4s-3.5-4.1-6.1-2.5c-2.6,1.6,2.3,9,2.3,9s-4-0.2-3.7,3.1c0.3,3.3,8.3,5,9.7,5.2l1.1-5.1 c0.1,0.3,0.3,0.5,0.6,0.6c2.3,1.5,6.4-0.3,10.1-2.5c3.7-2.2,7.2,0,7.2,0c-0.2,4.1,3.7,3.5,3.6,6.5c0,0.8,0,1.5,0.1,2.3l0.6,5.1 l1.8-8c1.1-3.5,5-3.2,5-3.2c0.9-2.1,0.2,0,0.7-2.4C466.2,69.8,463.4,67.8,463.4,67.8z"></path> <path class="st2" d="M447.6,106.6c-1.7,0-3.3-0.4-4.7-1.3c-3.5-2.1-4.6-6.2-4.6-6.3l-4.1-19c-0.3-2.1,0-4,0.9-5.8 c2.3-4.3,8.3-7.2,15.6-7.6c0.4,0,0.8,0.3,0.8,0.7c0,0.4-0.3,0.8-0.7,0.8c-6.8,0.4-12.3,3-14.4,6.8c-0.8,1.5-1,3.1-0.8,4.8 l4.1,18.9c0.1,0.3,2.2,8.2,10.7,6.1c5.5-1.4,9.3-5.2,11.5-8.1c0.3-0.3,0.7-0.4,1.1-0.1c0.3,0.2,0.4,0.7,0.1,1.1 c-2.4,3.1-6.4,7.1-12.3,8.6C449.6,106.5,448.6,106.6,447.6,106.6z"></path> <g> <path class="st2" d="M410.9,172.1l12.5-3.9l6.1-47.9c0.6-4.4,3.8-7.9,8.1-8.9l2.7-0.6v94h-36L410.9,172.1z"></path> <path class="st2" d="M440.2,205.5h-36c-0.2,0-0.4-0.1-0.6-0.3c-0.1-0.2-0.2-0.4-0.2-0.6l6.7-32.6c0.1-0.3,0.3-0.5,0.5-0.6l12-3.8 l6-47.4c0.6-4.7,4.1-8.5,8.7-9.6l2.7-0.6c0.2-0.1,0.5,0,0.6,0.1c0.2,0.1,0.3,0.4,0.3,0.6v94C440.9,205.2,440.6,205.5,440.2,205.5 z M405.1,204h34.3v-92.3l-1.7,0.4c-4,0.9-7,4.3-7.5,8.3l-6.1,47.9c0,0.3-0.2,0.5-0.5,0.6l-12,3.8L405.1,204z"></path> </g> <g> <path class="st4" d="M434.7,112l13.6-3.8c1.6,3.4,5.1,5.8,9.2,5.8c4.2,0,7.8-2.6,9.4-6.2l15.4,3.7c5.3,1.3,9.3,5.7,10,11.1 l7.6,57.1c0.5,3.7-2,7.2-5.7,7.9l-8.9,1.7v14.3l-52.3,2.1l-1.7-89C431.2,114.4,432.7,112.5,434.7,112z"></path> <path class="st2" d="M433,206.4c-0.2,0-0.4-0.1-0.5-0.2c-0.1-0.1-0.2-0.3-0.2-0.5l-1.7-89c0-2.5,1.6-4.7,4-5.4l13.6-3.8 c0.4-0.1,0.7,0.1,0.9,0.4c1.6,3.3,4.9,5.4,8.5,5.4c3.8,0,7.2-2.3,8.7-5.7c0.1-0.3,0.5-0.5,0.9-0.4l15.4,3.7 c5.6,1.4,9.8,5.9,10.6,11.7l7.6,57.1c0.6,4.1-2.2,8-6.3,8.8l-8.3,1.6v13.6c0,0.4-0.3,0.7-0.7,0.7L433,206.4 C433,206.4,433,206.4,433,206.4z M447.9,109l-13,3.7l0,0c-1.7,0.5-2.9,2.1-2.9,3.9l1.7,88.3l50.8-2.1v-13.5 c0-0.4,0.3-0.7,0.6-0.7l8.9-1.7c3.3-0.6,5.6-3.7,5.1-7.1l-7.6-57.1c-0.7-5.1-4.4-9.2-9.4-10.4l-14.8-3.6 c-1.8,3.7-5.6,6.1-9.8,6.1C453.5,114.7,449.9,112.5,447.9,109z M434.7,112L434.7,112L434.7,112z"></path> </g> <polygon class="st2" points="486.4,189.2 486.4,196.6 450.6,199.4 437.9,196.2 "></polygon> <g> <path class="st5" d="M430.4,188.2h-4.8c0,0-5-2.9-12,0l1.8,7.9h16.3L430.4,188.2z"></path> <path class="st2" d="M431.6,196.9h-16.3c-0.4,0-0.7-0.2-0.7-0.6l-1.8-7.9c-0.1-0.4,0.1-0.7,0.4-0.9c6.6-2.7,11.5-0.6,12.5-0.1 h4.6c0.4,0,0.7,0.3,0.7,0.6l1.3,7.9c0,0.2,0,0.4-0.2,0.6C432.1,196.8,431.9,196.9,431.6,196.9z M416,195.4h14.8l-1-6.4h-4.1 c-0.1,0-0.3,0-0.4-0.1c0,0-4.5-2.5-10.8-0.2L416,195.4z"></path> </g> <polygon class="st2" points="429.2,182.2 429.2,196.3 433.3,196.3 "></polygon> <g> <path class="st5" d="M366.5,201.2h55.9c1.2,0,2-1.1,1.8-2.2l-10.4-44.5c-0.2-0.7-0.8-1.2-1.5-1.2h-56c-1.2,0-2,1.1-1.8,2.2 l10.4,44.3C365,200.6,365.7,201.2,366.5,201.2z"></path> <path class="st2" d="M422.4,201.9h-55.9c-1.2,0-2.2-0.8-2.5-2l-10.4-44.3c-0.2-0.8,0-1.6,0.5-2.2c0.5-0.6,1.2-1,2-1h56 c1.1,0,2,0.7,2.3,1.8l10.4,44.5c0.2,0.8,0,1.6-0.5,2.2C423.9,201.6,423.2,201.9,422.4,201.9z M356.1,154c-0.3,0-0.6,0.1-0.8,0.4 c-0.2,0.3-0.3,0.6-0.2,0.9l10.4,44.3c0.1,0.5,0.5,0.8,1,0.8h55.9c0.3,0,0.6-0.1,0.8-0.4c0.2-0.3,0.3-0.6,0.2-0.9L413,154.7 c-0.1-0.4-0.4-0.6-0.8-0.6H356.1z"></path> </g> <path class="st5" d="M445.4,96.7c-0.7,0-1.1-0.1-1.1-0.1c-0.4-0.1-0.6-0.5-0.5-0.9c0.1-0.4,0.5-0.6,0.9-0.5c0.1,0,1.8,0.4,3.9-0.8 c0.4-0.2,0.8-0.1,1,0.3c0.2,0.4,0.1,0.8-0.3,1C447.8,96.5,446.4,96.7,445.4,96.7z"></path> <path class="st2" d="M463.8,87.2c-0.5,0-0.9-0.1-1.4-0.3c-0.4-0.1-0.6-0.6-0.5-1c0.1-0.4,0.6-0.6,1-0.5c1.2,0.4,2.2,0,2.9-1.2 c1.2-2.1,1-5.7-0.5-7c-0.7-0.6-1.3-0.8-1.9-0.7c-1.3,0.3-2.4,2.2-2.7,2.9c-0.2,0.4-0.6,0.6-1,0.4c-0.4-0.2-0.6-0.6-0.4-1 c0.1-0.1,1.4-3.3,3.7-3.8c1.1-0.3,2.2,0.1,3.3,1c2.2,1.9,2.2,6.5,0.8,8.9C466.2,86.5,465.1,87.2,463.8,87.2z"></path> <g> <rect x="439" y="279.1" transform="matrix(-1 -4.486246e-11 4.486246e-11 -1 917.6014 562.6938)" class="st2" width="39.5" height="4.5"></rect> <g> <polygon class="st5" points="456.7,339 460.9,339 461.7,243.2 455.9,243.2 "></polygon> <path class="st2" d="M460.9,339.8h-4.2c-0.4,0-0.7-0.3-0.8-0.7l-0.8-95.8c0-0.2,0.1-0.4,0.2-0.5c0.1-0.1,0.3-0.2,0.5-0.2h5.8 c0.2,0,0.4,0.1,0.5,0.2c0.1,0.1,0.2,0.3,0.2,0.5l-0.8,95.8C461.7,339.4,461.3,339.8,460.9,339.8z M457.4,338.2h2.7l0.8-94.3 h-4.3L457.4,338.2z"></path> </g> <g> <polygon class="st5" points="482.5,339 486.7,339 476.3,243.2 470.5,243.2 "></polygon> <path class="st2" d="M486.7,339.8h-4.2c-0.4,0-0.7-0.3-0.7-0.7l-12-95.8c0-0.2,0-0.4,0.2-0.6c0.1-0.2,0.3-0.3,0.6-0.3h5.8 c0.4,0,0.7,0.3,0.7,0.7l10.4,95.8c0,0.2,0,0.4-0.2,0.6C487.1,339.7,486.9,339.8,486.7,339.8z M483.1,338.2h2.7l-10.2-94.3h-4.3 L483.1,338.2z"></path> </g> <g> <polygon class="st5" points="435.1,339 430.9,339 441.3,243.2 447.1,243.2 "></polygon> <path class="st2" d="M435.1,339.8h-4.2c-0.2,0-0.4-0.1-0.6-0.2c-0.1-0.2-0.2-0.4-0.2-0.6l10.4-95.8c0-0.4,0.4-0.7,0.7-0.7h5.8 c0.2,0,0.4,0.1,0.6,0.3c0.1,0.2,0.2,0.4,0.2,0.6l-12,95.8C435.8,339.5,435.5,339.8,435.1,339.8z M431.8,338.2h2.7l11.8-94.3H442 L431.8,338.2z"></path> </g> <g> <rect x="430.5" y="237.6" transform="matrix(-1 -4.467638e-11 4.467638e-11 -1 917.6014 482.8394)" class="st5" width="56.5" height="7.7"></rect> <path class="st2" d="M487.1,246h-56.5c-0.4,0-0.8-0.3-0.8-0.8v-7.7c0-0.4,0.3-0.8,0.8-0.8h56.5c0.4,0,0.8,0.3,0.8,0.8v7.7 C487.8,245.7,487.5,246,487.1,246z M431.3,244.5h55v-6.2h-55V244.5z"></path> </g> </g> <g> <path class="st5" d="M485.4,203.7L439,200h-33.6c-11.8,0-21.5,9.4-21.8,21.1l-3.1,97.6h24.1l9.8-81.2h56 C470.5,237.6,491.2,232.4,485.4,203.7z"></path> <path class="st2" d="M404.6,319.5h-24.1c-0.2,0-0.4-0.1-0.5-0.2c-0.1-0.1-0.2-0.3-0.2-0.5l3.1-97.6c0.4-12.3,10.3-21.9,22.6-21.9 H439l46.4,3.7c0.3,0,0.6,0.3,0.7,0.6c5.9,29.1-15.3,34.7-15.5,34.7c-0.1,0-0.1,0-0.2,0h-55.4l-9.7,80.5 C405.3,319.2,405,319.5,404.6,319.5z M381.3,318H404l9.7-80.5c0-0.4,0.4-0.7,0.7-0.7h55.9c1.6-0.4,19.5-5.9,14.4-32.4l-45.8-3.6 l-33.5,0c-11.5,0-20.7,9-21.1,20.4L381.3,318z"></path> </g> <g> <rect x="419.9" y="196.5" transform="matrix(-1 -4.479629e-11 4.479629e-11 -1 879.0766 397.6761)" class="st5" width="39.2" height="4.7"></rect> <path class="st2" d="M459.2,201.9h-39.2c-0.4,0-0.8-0.3-0.8-0.8v-4.7c0-0.4,0.3-0.8,0.8-0.8h39.2c0.4,0,0.8,0.3,0.8,0.8v4.7 C459.9,201.6,459.6,201.9,459.2,201.9z M420.7,200.4h37.7v-3.2h-37.7V200.4z"></path> </g> <g> <path class="st5" d="M362.7,201.2h55.9c1.2,0,2-1.1,1.8-2.2l-10.4-44.5c-0.2-0.7-0.8-1.2-1.5-1.2h-56c-1.2,0-2,1.1-1.8,2.2 l10.4,44.3C361.1,200.6,361.9,201.2,362.7,201.2z"></path> <path class="st2" d="M418.6,201.9h-55.9c-1.2,0-2.2-0.8-2.5-2l-10.4-44.3c-0.2-0.8,0-1.6,0.5-2.2c0.5-0.6,1.2-1,2-1h56 c1.1,0,2,0.7,2.3,1.8l10.4,44.5c0.2,0.8,0,1.6-0.5,2.2C420.1,201.6,419.4,201.9,418.6,201.9z M352.3,154c-0.3,0-0.6,0.1-0.8,0.4 c-0.2,0.3-0.3,0.6-0.2,0.9l10.4,44.3c0.1,0.5,0.5,0.8,1,0.8h55.9c0.3,0,0.6-0.1,0.8-0.4c0.2-0.3,0.3-0.6,0.2-0.9l-10.4-44.5 c-0.1-0.4-0.4-0.6-0.8-0.6H352.3z"></path> </g> <g> <ellipse transform="matrix(0.9461 -0.3238 0.3238 0.9461 -36.5083 133.902)" class="st5" cx="384.1" cy="176.7" rx="3.2" ry="4.8"></ellipse> <path class="st2" d="M384.9,182.1c-2.2,0-4.4-2.3-4.9-5.3l0,0c-0.3-1.8,0-3.4,0.9-4.4c0.6-0.7,1.4-1.1,2.3-1.1 c2.2,0,4.4,2.3,4.9,5.3c0.3,1.8,0,3.4-0.9,4.4C386.7,181.7,385.9,182.1,384.9,182.1z M381.5,176.5c0.4,2.2,1.9,4,3.4,4 c0.5,0,0.9-0.2,1.2-0.6c0.6-0.7,0.8-1.9,0.6-3.2c-0.4-2.2-1.9-4-3.4-4c-0.5,0-0.9,0.2-1.2,0.6C381.5,174,381.3,175.2,381.5,176.5 L381.5,176.5z"></path> </g> <g> <polyline class="st4" points="486.4,189.2 433.4,196.9 429.2,179.3 476.2,171.4 473.1,147.4 "></polyline> <path class="st2" d="M433.4,197.6c-0.3,0-0.6-0.2-0.7-0.6l-4.2-17.6c0-0.2,0-0.4,0.1-0.6s0.3-0.3,0.5-0.3l46.3-7.8l-3-23.3 c-0.1-0.4,0.2-0.8,0.6-0.8c0.4,0,0.8,0.2,0.8,0.6l3.1,24c0.1,0.4-0.2,0.8-0.6,0.8l-46.2,7.8L434,196l52.4-7.6 c0.4-0.1,0.8,0.2,0.8,0.6c0.1,0.4-0.2,0.8-0.6,0.8l-53,7.7C433.5,197.6,433.5,197.6,433.4,197.6z"></path> </g> </g> <g> <g> <line class="st4" x1="366.9" y1="14.6" x2="366.9" y2="20.7"></line> <path class="st2" d="M366.9,21.4c-0.4,0-0.8-0.3-0.8-0.8v-6.1c0-0.4,0.3-0.8,0.8-0.8s0.8,0.3,0.8,0.8v6.1 C367.7,21.1,367.3,21.4,366.9,21.4z"></path> </g> <g> <path class="st2" d="M376.2,24.6h-6.1c-0.4,0-0.8-0.3-0.8-0.8s0.3-0.8,0.8-0.8h6.1c0.4,0,0.8,0.3,0.8,0.8S376.6,24.6,376.2,24.6z "></path> </g> <g> <path class="st2" d="M355.2,35.6L355.2,35.6c1.9,1.9,5,1.9,7,0l7-7c1.9-1.9,1.9-5,0-7v0c-1.9-1.9-5-1.9-7,0l-7,7 C353.2,30.5,353.2,33.7,355.2,35.6z"></path> <path class="st2" d="M358.6,37.8c-1.5,0-2.9-0.6-4-1.7l0,0c-1.1-1.1-1.7-2.5-1.7-4c0-1.5,0.6-2.9,1.7-4l7-7 c1.1-1.1,2.5-1.7,4-1.7c1.5,0,2.9,0.6,4,1.7c2.2,2.2,2.2,5.8,0,8l-7,7C361.5,37.2,360.1,37.8,358.6,37.8z M365.6,21 c-1.1,0-2.2,0.4-2.9,1.2l-7,7c-0.8,0.8-1.2,1.8-1.2,2.9c0,1.1,0.4,2.2,1.2,2.9l0,0c0.8,0.8,1.8,1.2,2.9,1.2s2.2-0.4,2.9-1.2l7-7 c0.8-0.8,1.2-1.8,1.2-2.9s-0.4-2.2-1.2-2.9S366.7,21,365.6,21z"></path> </g> <g> <path class="st5" d="M372.6,32.1c1.9,1.9,1.9,5,0,7c-1.9,1.9-5,1.9-7,0c-1.9-1.9-1.9-5,0-7l3.5-3.5L372.6,32.1z"></path> <path class="st2" d="M369.1,41.2c-1.5,0-2.9-0.6-4-1.7c-2.2-2.2-2.2-5.8,0-8l3.5-3.5c0.3-0.3,0.8-0.3,1.1,0l3.5,3.5l0,0 c2.2,2.2,2.2,5.8,0,8C372,40.7,370.5,41.2,369.1,41.2z M369.1,29.7l-2.9,2.9c-1.6,1.6-1.6,4.3,0,5.9c1.6,1.6,4.3,1.6,5.9,0 c1.6-1.6,1.6-4.3,0-5.9L369.1,29.7z"></path> </g> <g> <path class="st5" d="M358.6,18.2c-1.9-1.9-5-1.9-7,0c-1.9,1.9-1.9,5,0,7c1.9,1.9,5,1.9,7,0l3.5-3.5L358.6,18.2z"></path> <path class="st2" d="M355.2,27.3c-1.5,0-2.9-0.6-4-1.7c-1.1-1.1-1.7-2.5-1.7-4s0.6-2.9,1.7-4c1.1-1.1,2.5-1.7,4-1.7 c1.5,0,2.9,0.6,4,1.7l3.5,3.5c0.3,0.3,0.3,0.8,0,1.1l-3.5,3.5C358.1,26.8,356.6,27.3,355.2,27.3z M355.2,17.5 c-1.1,0-2.2,0.4-2.9,1.2c-1.6,1.6-1.6,4.3,0,5.9c1.6,1.6,4.3,1.6,5.9,0l2.9-2.9l-2.9-2.9l0,0C357.3,17.9,356.3,17.5,355.2,17.5z"></path> </g> </g> </g> </svg> 